<?xml version="1.0" encoding="utf-8"?>
<!-- Svg Vector Icons : http://www.onlinewebfonts.com/icon -->
<!DOCTYPE svg PUBLIC "-//W3C//DTD SVG 1.1//EN" "http://www.w3.org/Graphics/SVG/1.1/DTD/svg11.dtd">
<svg version="1.1" xmlns="http://www.w3.org/2000/svg" xmlns:xlink="http://www.w3.org/1999/xlink" x="0px" y="0px" viewBox="0 0 1000 1000" enable-background="new 0 0 1000 1000" xml:space="preserve">
<metadata> Svg Vector Icons : http://www.onlinewebfonts.com/icon </metadata>
<g><g><path d="M645.5,815.9L520,520.3c-7.1,13.9-29.6,57.2-67.4,129.9c-37.9,72.7-66,128-84.4,165.7c-0.3,0.3-4.2,0.4-11.7,0.2s-11.3-0.4-11.3-0.6c-23.3-54.7-59.5-138-108.7-249.7c-49.2-111.7-86-196.2-110.4-253.5c-6-14.2-15.4-29.4-28.3-45.7c-12.9-16.3-27.6-30.6-44-42.7c-16.4-12.2-30.9-18.3-43.4-18.3c0-1.4-0.1-4.8-0.2-10.2s-0.2-9.2-0.2-11.5h248v21.3c-11.1,0.6-22.3,2.8-33.8,6.8c-11.5,4-20.9,10.1-28.3,18.3c-7.4,8.2-8.8,17.3-4.3,27.2c7.4,16.7,38.1,87.5,92.1,212.2c54,124.8,87.4,201.3,100.2,229.7c8.8-17.3,28.6-55.1,59.5-113.4c30.9-58.3,49.5-93.4,55.7-105.3c-5.4-11.1-23.3-50.9-53.6-119.5c-30.3-68.6-49.6-110.4-57.8-125.5c-10.8-19.6-39.3-29.6-85.5-30.2v-21.3l218.2,0.4v20c-17,0.6-30.3,4.1-39.8,10.6c-9.5,6.5-11.3,16.3-5.3,29.3c9.4,19.8,21.7,46.7,37,80.6s27.5,60.5,36.6,79.8c31.2-60.7,55.7-112.2,73.6-154.4c6.8-15.6,5.4-26.9-4.3-33.8c-9.6-6.9-27.9-10.7-54.9-11.3c0.3-2,0.4-5.5,0.4-10.6v-10.2c18.1,0,42.3-0.1,72.5-0.2c30.2-0.1,55.7-0.3,76.6-0.4c20.8-0.1,34-0.2,39.3-0.2v20.8c-17.6,0.6-34.5,5.2-50.6,14c-16.2,8.8-28.9,20.3-38.3,34.5l-90.6,188c3.7,9.4,21.8,50.5,54.2,123.4c32.5,72.9,49.7,111.7,51.7,116.5l187.6-432.6c-4-10.8-11-19.6-21.1-26.6c-10.1-6.9-19.3-11.4-27.6-13.4c-8.4-2-16.2-3.1-23.6-3.4v-21.3l195.7,1.7l0.4,0.9l-0.4,18.7c-39.4,1.1-67.9,21.7-85.5,61.7C754.9,611.6,675.7,794.6,666.3,815.9L645.5,815.9L645.5,815.9z"/></g></g>
</svg>